<svg height="512" viewBox="0 0 64 64" width="512" xmlns="http://www.w3.org/2000/svg"><g id="calulator-file-graph"><path d="m49 12v45h-42v-54h33v9z" fill="#bdfdff"/><path d="m25 28v11h-11a11 11 0 1 0 11-11z" fill="#ffda44"/><rect fill="#787680" height="38" rx="2" width="29" x="32" y="23"/><path d="m53 36h5v5h-5z" fill="#ff5023"/><path d="m53 44h5v13h-5z" fill="#ffda44"/><g fill="#ff5023"><path d="m44 52h5v5h-5z"/><path d="m35 36h5v5h-5z"/><path d="m35 44h5v5h-5z"/><path d="m35 52h5v5h-5z"/><path d="m44 44h5v5h-5z"/><path d="m44 36h5v5h-5z"/></g><path d="m35 26h23v6h-23z" fill="#2488ff"/><path d="m17 26.2a10.915 10.915 0 0 1 5-1.2v11h-11a11 11 0 0 1 6-9.8z" fill="#ff5023"/><circle cx="26" cy="19" fill="#ff9811" r="2"/><path d="m49 12h-9v-9z" fill="#00e7f0"/><path d="m59 22h-9v-10a1.033 1.033 0 0 0 -.29-.71l-9-9a1.033 1.033 0 0 0 -.71-.29h-33a1 1 0 0 0 -1 1v54a1 1 0 0 0 1 1h24v1a3.009 3.009 0 0 0 3 3h25a3.009 3.009 0 0 0 3-3v-34a3.009 3.009 0 0 0 -3-3zm-18-16.59 5.59 5.59h-5.59zm-10 41.58a9.989 9.989 0 0 1 -15.95-6.99h9.95a1 1 0 0 0 1-1v-9.95a9.979 9.979 0 0 1 5 1.98zm0-21.99v3.61a12.09 12.09 0 0 0 -6-1.61 1 1 0 0 0 -1 1v10h-10a1 1 0 0 0 -1 1 12 12 0 0 0 18 10.39v6.61h-23v-52h31v8a1 1 0 0 0 1 1h8v9h-14a3.009 3.009 0 0 0 -3 3zm29 34a1 1 0 0 1 -1 1h-25a1 1 0 0 1 -1-1v-34a1 1 0 0 1 1-1h25a1 1 0 0 1 1 1z"/><path d="m58 25h-23a1 1 0 0 0 -1 1v6a1 1 0 0 0 1 1h23a1 1 0 0 0 1-1v-6a1 1 0 0 0 -1-1zm-1 6h-21v-4h21z"/><path d="m40 35h-5a1 1 0 0 0 -1 1v5a1 1 0 0 0 1 1h5a1 1 0 0 0 1-1v-5a1 1 0 0 0 -1-1zm-1 5h-3v-3h3z"/><path d="m49 35h-5a1 1 0 0 0 -1 1v5a1 1 0 0 0 1 1h5a1 1 0 0 0 1-1v-5a1 1 0 0 0 -1-1zm-1 5h-3v-3h3z"/><path d="m40 43h-5a1 1 0 0 0 -1 1v5a1 1 0 0 0 1 1h5a1 1 0 0 0 1-1v-5a1 1 0 0 0 -1-1zm-1 5h-3v-3h3z"/><path d="m49 43h-5a1 1 0 0 0 -1 1v5a1 1 0 0 0 1 1h5a1 1 0 0 0 1-1v-5a1 1 0 0 0 -1-1zm-1 5h-3v-3h3z"/><path d="m40 51h-5a1 1 0 0 0 -1 1v5a1 1 0 0 0 1 1h5a1 1 0 0 0 1-1v-5a1 1 0 0 0 -1-1zm-1 5h-3v-3h3z"/><path d="m49 51h-5a1 1 0 0 0 -1 1v5a1 1 0 0 0 1 1h5a1 1 0 0 0 1-1v-5a1 1 0 0 0 -1-1zm-1 5h-3v-3h3z"/><path d="m58 35h-5a1 1 0 0 0 -1 1v5a1 1 0 0 0 1 1h5a1 1 0 0 0 1-1v-5a1 1 0 0 0 -1-1zm-1 5h-3v-3h3z"/><path d="m58 43h-5a1 1 0 0 0 -1 1v13a1 1 0 0 0 1 1h5a1 1 0 0 0 1-1v-13a1 1 0 0 0 -1-1zm-1 13h-3v-11h3z"/><path d="m10 6h4v2h-4z"/><path d="m17 6h8v2h-8z"/><path d="m10 10h7v2h-7z"/><path d="m20 10h6v2h-6z"/><path d="m23 36v-11a1 1 0 0 0 -1-1 11.922 11.922 0 0 0 -4 .7v-4.7h5.184a3 3 0 1 0 0-2h-6.184a1 1 0 0 0 -1 1v6.624a12 12 0 0 0 -6 10.376 1 1 0 0 0 1 1h11a1 1 0 0 0 1-1zm3-18a1 1 0 1 1 -1 1 1 1 0 0 1 1-1zm-5 17h-8.95a9.99 9.99 0 0 1 3.95-6.985v2.985h2v-4.155a9.878 9.878 0 0 1 3-.795z"/></g></svg>