<svg height="512" viewBox="0 0 512 512" width="512" xmlns="http://www.w3.org/2000/svg"><g id="Fill_out_line" data-name="Fill out line"><path d="m176 272-32 32-22.06-22.06006a115.828 115.828 0 0 1 -32.82-65.93994 113.59143 113.59143 0 0 1 -1.12-16h48a77.26653 77.26653 0 0 0 22.63 54.63z" fill="#f4e2a0"/><path d="m72 88h96v112h-96z" fill="#ea4042"/><path d="m137.68 216h-48.56a113.59143 113.59143 0 0 1 -1.12-16h48a76.9121 76.9121 0 0 0 1.68 16z" fill="#f4c433"/><path d="m64 104h8a0 0 0 0 1 0 0v80a0 0 0 0 1 0 0h-8a40 40 0 0 1 -40-40 40 40 0 0 1 40-40z" fill="#f4e2a0"/><path d="m288 40v208a16 16 0 1 1 -32 0 63.98713 63.98713 0 0 0 -64-64h-24v-80h24a63.98234 63.98234 0 0 0 64-64 16 16 0 0 1 32 0z" fill="#90d2ed"/><path d="m288 120h8a24 24 0 0 1 24 24 24 24 0 0 1 -24 24h-8a0 0 0 0 1 0 0v-48a0 0 0 0 1 0 0z" fill="#f4e2a0"/><path d="m56 440h64v48h-64z" fill="#ea4042"/><path d="m168 376h64v112h-64z" fill="#b28ec1"/><path d="m280 440h64v48h-64z" fill="#f4e2a0"/><path d="m392 376h64v112h-64z" fill="#a8c92a"/><path d="m24 496v-16h464" fill="#cadae6"/><path d="m296 112v-72a24 24 0 0 0 -48 0 56.0615 56.0615 0 0 1 -56 56h-16v-8a7.99778 7.99778 0 0 0 -8-8h-96a7.99778 7.99778 0 0 0 -8 8v8a48 48 0 0 0 0 96v8a7.99782 7.99782 0 0 0 8 8h8.25a123.02955 123.02955 0 0 0 36.03 79.6l22.06 22.05993a8.01492 8.01492 0 0 0 11.31994 0l32-32a8.015 8.015 0 0 0 0-11.31994l-17.37994-17.36999a68.78817 68.78817 0 0 1 -19.83-40.97h23.55a7.99782 7.99782 0 0 0 8-8v-8h16a56.0615 56.0615 0 0 1 56 56 24 24 0 0 0 48 0v-72a32 32 0 0 0 0-64zm-232 64a32 32 0 0 1 0-64zm96 16h-24a7.99778 7.99778 0 0 0 -8 8 84.69685 84.69685 0 0 0 24.97 60.28l11.72 11.72-20.69 20.68994-16.4-16.40994a107.05966 107.05966 0 0 1 -31.31-68.28h15.71v-16h-32v-96h80zm120 56a8 8 0 0 1 -16 0v-128h-16v82.8a71.87 71.87 0 0 0 -56-26.8h-16v-64h16a72.08273 72.08273 0 0 0 72-72 8 8 0 0 1 16 0zm16-88v-32a16 16 0 0 1 0 32z"/><path d="m128 464h-16v-16h-48v16h-16v-24a7.99977 7.99977 0 0 1 8-8h64a7.99977 7.99977 0 0 1 8 8z"/><path d="m240 464h-16v-80h-48v80h-16v-88a7.99977 7.99977 0 0 1 8-8h64a7.99977 7.99977 0 0 1 8 8z"/><path d="m352 464h-16v-16h-48v16h-16v-24a7.99977 7.99977 0 0 1 8-8h64a7.99977 7.99977 0 0 1 8 8z"/><path d="m464 464h-16v-80h-48v80h-16v-88a7.99977 7.99977 0 0 1 8-8h64a7.99977 7.99977 0 0 1 8 8z"/><path d="m24 480h464v16h-464z"/><path d="m312 424a7.97507 7.97507 0 0 1 -5.65674-2.34326l-106.34326-106.34326-106.34326 106.34326-11.31348-11.31348 112-112a8 8 0 0 1 11.31348 0l106.34326 106.34326 170.34326-170.34326 11.31348 11.31348-176 176a7.97507 7.97507 0 0 1 -5.65674 2.34326z"/><path d="m496 280h-16v-32h-32v-16h40a7.99977 7.99977 0 0 1 8 8z"/></g></svg>