<?xml version="1.0" encoding="iso-8859-1"?>
<!-- Generator: Adobe Illustrator 19.0.0, SVG Export Plug-In . SVG Version: 6.00 Build 0)  -->
<svg xmlns="http://www.w3.org/2000/svg" xmlns:xlink="http://www.w3.org/1999/xlink" version="1.1" id="Layer_1" x="0px" y="0px" viewBox="0 0 512 512" style="enable-background:new 0 0 512 512;" xml:space="preserve" width="512" height="512">
<g id="XMLID_2603_">
	<g id="XMLID_1212_">
		<path id="XMLID_1221_" style="fill:#5DDEF5;" d="M295.889,294.045l0,12.523l-52.211,11.453    c-22.481,4.932-38.499,24.845-38.499,47.86V462h236v-96.091c0-23.028-16.036-42.949-38.532-47.867l-52.478-11.474v-12.611"/>
		<polygon id="XMLID_2604_" style="fill:#FFFFFF;" points="350.169,306.568 323.029,379.148 295.889,306.568   "/>
		<path id="XMLID_1217_" style="fill:#AFABB0;" d="M323.179,146.929L323.179,146.929c-31.749,0-57.487,25.738-57.487,57.487v13.839    h28.107c18.684,0,36.409-8.273,48.41-22.593v0l38.456,22.593v-13.839C380.666,172.667,354.928,146.929,323.179,146.929z"/>
		<path id="XMLID_1216_" style="fill:#FED2A4;" d="M329.827,206.958c-10.473,7.274-23.014,11.297-36.027,11.297h-28.107v24.417    c0,31.749,25.738,57.487,57.487,57.487h0c31.749,0,57.487-25.738,57.487-57.487v-24.417l-19.228-11.297l-19.228-11.297    L329.827,206.958z"/>
	</g>
	<rect id="XMLID_2502_" x="10" y="462" style="fill:#FFBE52;" width="492" height="40"/>
	<circle id="XMLID_2195_" style="fill:#93E7F8;" cx="92.545" cy="92.545" r="82.545"/>
	<rect id="XMLID_2533_" x="10" y="227" style="fill:#C7C4C8;" width="216" height="160"/>
	<path id="XMLID_1029_" style="fill:#5DDEF5;" d="M138,426H98v-99c0-11.046,8.954-20,20-20h0c11.046,0,20,8.954,20,20V426z"/>
	<path id="XMLID_1028_" style="fill:#5DDEF5;" d="M170,462H66v-15c0-11.598,9.402-21,21-21h62c11.598,0,21,9.402,21,21V462z"/>
	<rect id="XMLID_1222_" x="374" y="422" style="fill:#FFFFFF;" width="128" height="40"/>
	<rect id="XMLID_1227_" x="374" y="382" style="fill:#E8E7E9;" width="128" height="40"/>
	<rect id="XMLID_1229_" x="374" y="342" style="fill:#FFFFFF;" width="128" height="40"/>
	<g id="XMLID_636_">
		<path id="XMLID_1699_" d="M92.545,185.09c51.029,0,92.545-41.516,92.545-92.545S143.574,0,92.545,0S0,41.516,0,92.545    S41.516,185.09,92.545,185.09z M92.545,20c40.001,0,72.545,32.544,72.545,72.545s-32.544,72.545-72.545,72.545    S20,132.546,20,92.545S52.544,20,92.545,20z"/>
		<path id="XMLID_1701_" d="M100.501,114.526c1.952,1.945,4.506,2.917,7.06,2.917c2.564,0,5.13-0.98,7.083-2.94    c3.898-3.912,3.888-10.244-0.023-14.143l-12.008-11.968V44c0-5.522-4.478-10-10-10s-10,4.478-10,10v48.545    c0,2.658,1.059,5.207,2.94,7.083L100.501,114.526z"/>
		<path id="XMLID_1706_" d="M502,332h-61.547c-8.46-12.034-21.172-20.558-35.671-23.728l-43.964-9.613    c17.991-12.134,29.847-32.702,29.847-55.988v-24.417v-11.297v-2.542c0-37.212-30.274-67.486-67.486-67.486    s-67.486,30.274-67.486,67.486v2.542v11.297v24.417c0,23.256,11.825,43.803,29.778,55.943l-43.936,9.639    c-1.877,0.412-3.722,0.917-5.535,1.502V227c0-5.522-4.478-10-10-10h-68c-5.522,0-10,4.478-10,10s4.478,10,10,10h58v140h-68v-50    c0-16.542-13.458-30-30-30s-30,13.458-30,30v50H20V237h58c5.522,0,10-4.478,10-10s-4.478-10-10-10H10c-5.522,0-10,4.478-10,10v160    c0,5.522,4.478,10,10,10h78v19h-1c-17.094,0-31,13.906-31,31v5H10c-5.522,0-10,4.478-10,10v40c0,5.522,4.478,10,10,10h492    c5.522,0,10-4.478,10-10v-40v-40v-40v-40C512,336.478,507.522,332,502,332z M441.179,452H384v-20h108v20H441.179z M492,412H384    v-20h108V412z M492,372H384v-20h50.874c0.03,0,0.06,0.006,0.089,0.006c0.031,0,0.063-0.006,0.094-0.006H492V372z M275.692,204.416    c0-26.184,21.303-47.486,47.486-47.486c24.933,0,45.439,19.314,47.342,43.767l-23.246-13.657    c-4.211-2.475-9.593-1.544-12.73,2.199c-10.126,12.085-24.977,19.017-40.744,19.017h-18.107v-1.297V204.416z M275.692,228.255    H293.8c18.825,0,36.7-7.179,50.205-19.94l26.66,15.663v18.694c0,26.184-21.303,47.486-47.486,47.486s-47.486-21.303-47.486-47.486    V228.255z M338.844,308.303l-15.815,42.294l-15.844-42.37c5.13,1.252,10.483,1.931,15.993,1.931    C328.572,310.158,333.813,309.504,338.844,308.303z M226,397c5.522,0,10-4.478,10-10v-55.623c3.085-1.626,6.374-2.832,9.82-3.588    l43.74-9.596l24.103,64.457c1.461,3.907,5.194,6.497,9.366,6.497s7.905-2.59,9.366-6.498l24.104-64.461l44.011,9.623    c3.863,0.844,7.529,2.274,10.902,4.188H374c-5.522,0-10,4.478-10,10v40v40v30H215.179v-55H226z M195.179,397v55H180v-5    c0-17.094-13.906-31-31-31h-1v-19H195.179z M108,327c0-5.514,4.486-10,10-10s10,4.486,10,10v89h-20V327z M76,447    c0-6.065,4.935-11,11-11h11h40h11c6.065,0,11,4.935,11,11v5H76V447z M492,492H20v-20h472V492z"/>
		<path id="XMLID_1768_" d="M110.93,219.93c-1.86,1.86-2.93,4.44-2.93,7.07s1.069,5.21,2.93,7.069c1.86,1.86,4.44,2.931,7.07,2.931    s5.21-1.07,7.069-2.931C126.93,232.21,128,229.63,128,227s-1.07-5.21-2.931-7.07c-1.859-1.86-4.439-2.93-7.069-2.93    S112.79,218.069,110.93,219.93z"/>
	</g>
</g>















</svg>
